<svg xmlns="http://www.w3.org/2000/svg" version="1.1" xmlns:xlink="http://www.w3.org/1999/xlink" xmlns:svgjs="http://svgjs.dev/svgjs" width="1500" height="1500" viewBox="0 0 1500 1500"><rect width="1500" height="1500" fill="#000000"></rect><g transform="matrix(0.6666666666666666,0,0,0.6666666666666666,249.39393939393938,598.3523929868263)"><svg viewBox="0 0 396 120" data-background-color="#000000" preserveAspectRatio="xMidYMid meet" height="454" width="1500" xmlns="http://www.w3.org/2000/svg" xmlns:xlink="http://www.w3.org/1999/xlink"><g id="tight-bounds" transform="matrix(1,0,0,1,0.2400000000000091,0.12460189949624123)"><svg viewBox="0 0 395.52 119.75079620100755" height="119.75079620100755" width="395.52"><g><svg viewBox="0 0 612.7223780914135 185.5127240762074" height="119.75079620100755" width="395.52"><g transform="matrix(1,0,0,1,0,25.638878653079317)"><svg viewBox="0 0 395.52 134.23496677004877" height="134.23496677004877" width="395.52"><g id="textblocktransform"><svg viewBox="0 0 395.52 134.23496677004877" height="134.23496677004877" width="395.52" id="textblock"><g><svg viewBox="0 0 395.52 134.23496677004877" height="134.23496677004877" width="395.52"><g transform="matrix(1,0,0,1,0,0)"><svg width="395.52" viewBox="6.25 -37.7 112.84 38.300000000000004" height="134.23496677004877" data-palette-color="url(#d109f695-a481-4597-af8c-a26d9fc1ba00)"></svg></g></svg></g></svg></g></svg></g><g transform="matrix(1,0,0,1,427.209654015206,0)"><svg viewBox="0 0 185.5127240762074 185.5127240762074" height="185.5127240762074" width="185.5127240762074"><g data-palette-color="url(#698c6747-486b-4719-b368-ca051b89e129)"></g></svg></g></svg></g><defs></defs><mask id="a007e552-129c-4bd0-a749-bfc2ffd9e050"><g id="SvgjsG2161"><svg viewBox="0 0 395.52 119.75079620100755" height="119.75079620100755" width="395.52"><g><svg viewBox="0 0 612.7223780914135 185.5127240762074" height="119.75079620100755" width="395.52"><g transform="matrix(1,0,0,1,0,25.638878653079317)"><svg viewBox="0 0 395.52 134.23496677004877" height="134.23496677004877" width="395.52"><g id="SvgjsG2160"><svg viewBox="0 0 395.52 134.23496677004877" height="134.23496677004877" width="395.52" id="SvgjsSvg2159"><g><svg viewBox="0 0 395.52 134.23496677004877" height="134.23496677004877" width="395.52"><g transform="matrix(1,0,0,1,0,0)"><svg width="395.52" viewBox="6.25 -37.7 112.84 38.300000000000004" height="134.23496677004877" data-palette-color="url(#d109f695-a481-4597-af8c-a26d9fc1ba00)"><path d="M27-30.6L10.65-30.6 10.65-19.6 25.9-19.6 25.9-15.6 10.65-15.6 10.65-4.2 27-4.2 27 0 6.25 0 6.25-34.8 27-34.8 27-30.6ZM47 0.6Q43.35 0.6 40.6-1.15 37.85-2.9 36.4-5.98 34.95-9.05 34.95-12.95L34.95-12.95Q34.95-16.9 36.4-20.03 37.85-23.15 40.6-24.93 43.35-26.7 47.05-26.7L47.05-26.7Q49.65-26.7 51.6-26.15 53.55-25.6 55.3-24.15L55.3-24.15 55.3-19.9 55.1-19.9Q53.3-21.4 51.37-22.05 49.45-22.7 47-22.7L47-22.7Q43.45-22.7 41.52-19.95 39.6-17.2 39.6-12.9L39.6-12.9Q39.6-8.75 41.52-6.08 43.45-3.4 46.95-3.4L46.95-3.4Q49.55-3.4 51.6-4.23 53.65-5.05 55.65-6.85L55.65-6.85 55.85-6.85 55.85-2.6Q54-0.85 51.87-0.13 49.75 0.6 47 0.6L47 0.6ZM77.95-26.7Q81.65-26.7 83.55-24.43 85.45-22.15 85.45-18.1L85.45-18.1 85.45 0 81.05 0 81.05-17.5Q81.05-20 80-21.38 78.95-22.75 76.8-22.75L76.8-22.75Q74.34-22.75 72.67-21.95 71-21.15 68.95-19.35L68.95-19.35 68.95 0 64.55 0 64.55-37.7 68.95-37.7 68.95-22.85Q71.15-24.85 73.12-25.78 75.09-26.7 77.95-26.7L77.95-26.7ZM106.99 0.6Q101.29 0.6 98.09-3.13 94.89-6.85 94.89-13.05L94.89-13.05Q94.89-19.25 98.09-22.98 101.29-26.7 106.99-26.7L106.99-26.7Q112.69-26.7 115.89-22.98 119.09-19.25 119.09-13.05L119.09-13.05Q119.09-6.85 115.89-3.13 112.69 0.6 106.99 0.6L106.99 0.6ZM106.99-3.2Q110.64-3.2 112.49-5.9 114.34-8.6 114.34-13.05L114.34-13.05Q114.34-17.5 112.49-20.2 110.64-22.9 106.99-22.9L106.99-22.9Q103.34-22.9 101.52-20.2 99.69-17.5 99.69-13.05L99.69-13.05Q99.69-8.6 101.52-5.9 103.34-3.2 106.99-3.2L106.99-3.2Z" opacity="1" transform="matrix(1,0,0,1,0,0)" fill="white" class="wordmark-text-0" id="SvgjsPath2158"></path></svg></g></svg></g></svg></g></svg></g><g transform="matrix(1,0,0,1,427.209654015206,0)"><svg viewBox="0 0 185.5127240762074 185.5127240762074" height="185.5127240762074" width="185.5127240762074"><g data-palette-color="url(#698c6747-486b-4719-b368-ca051b89e129)"><rect width="50.70681124749669" height="185.5127240762074" fill="black" stroke="transparent" x="0" fill-opacity="1"></rect><rect width="50.70681124749669" height="185.5127240762074" fill="black" stroke="transparent" x="61.83757469206913" fill-opacity="0.75"></rect><rect width="50.70681124749669" height="185.5127240762074" fill="black" stroke="transparent" x="123.67514938413827" fill-opacity="0.5"></rect></g></svg></g></svg></g><defs><mask></mask></defs></svg><rect width="395.52" height="119.75079620100755" fill="black" stroke="none" visibility="hidden"></rect></g></mask><linearGradient x1="0" x2="1" y1="0.548" y2="0.55" id="d109f695-a481-4597-af8c-a26d9fc1ba00"><stop stop-color="#ff6cab" offset="0"></stop><stop stop-color="#7366ff" offset="1"></stop></linearGradient><rect width="395.52" height="119.75079620100755" fill="url(#d109f695-a481-4597-af8c-a26d9fc1ba00)" mask="url(#a007e552-129c-4bd0-a749-bfc2ffd9e050)" data-fill-palette-color="primary"></rect><mask id="d44ff108-ce46-41f5-8d2c-3490ed9453dc"><g id="SvgjsG2176"><svg viewBox="0 0 395.52 119.75079620100755" height="119.75079620100755" width="395.52"><g><svg viewBox="0 0 612.7223780914135 185.5127240762074" height="119.75079620100755" width="395.52"><g transform="matrix(1,0,0,1,0,25.638878653079317)"><svg viewBox="0 0 395.52 134.23496677004877" height="134.23496677004877" width="395.52"><g id="SvgjsG2175"><svg viewBox="0 0 395.52 134.23496677004877" height="134.23496677004877" width="395.52" id="SvgjsSvg2174"><g><svg viewBox="0 0 395.52 134.23496677004877" height="134.23496677004877" width="395.52"><g transform="matrix(1,0,0,1,0,0)"><svg width="395.52" viewBox="6.25 -37.7 112.84 38.300000000000004" height="134.23496677004877" data-palette-color="url(#d109f695-a481-4597-af8c-a26d9fc1ba00)"></svg></g></svg></g></svg></g></svg></g><g transform="matrix(1,0,0,1,427.209654015206,0)"><svg viewBox="0 0 185.5127240762074 185.5127240762074" height="185.5127240762074" width="185.5127240762074"><g data-palette-color="url(#698c6747-486b-4719-b368-ca051b89e129)"><rect width="50.70681124749669" height="185.5127240762074" fill="white" stroke="transparent" x="0" fill-opacity="1"></rect><rect width="50.70681124749669" height="185.5127240762074" fill="white" stroke="transparent" x="61.83757469206913" fill-opacity="0.75"></rect><rect width="50.70681124749669" height="185.5127240762074" fill="white" stroke="transparent" x="123.67514938413827" fill-opacity="0.5"></rect></g></svg></g></svg></g><defs><mask></mask></defs><mask><g id="SvgjsG2173"><svg viewBox="0 0 395.52 119.75079620100755" height="119.75079620100755" width="395.52"><g><svg viewBox="0 0 612.7223780914135 185.5127240762074" height="119.75079620100755" width="395.52"><g transform="matrix(1,0,0,1,0,25.638878653079317)"><svg viewBox="0 0 395.52 134.23496677004877" height="134.23496677004877" width="395.52"><g id="SvgjsG2172"><svg viewBox="0 0 395.52 134.23496677004877" height="134.23496677004877" width="395.52" id="SvgjsSvg2171"><g><svg viewBox="0 0 395.52 134.23496677004877" height="134.23496677004877" width="395.52"><g transform="matrix(1,0,0,1,0,0)"><svg width="395.52" viewBox="6.25 -37.7 112.84 38.300000000000004" height="134.23496677004877" data-palette-color="url(#d109f695-a481-4597-af8c-a26d9fc1ba00)"><path d="M27-30.6L10.65-30.6 10.65-19.6 25.9-19.6 25.9-15.6 10.65-15.6 10.65-4.2 27-4.2 27 0 6.25 0 6.25-34.8 27-34.8 27-30.6ZM47 0.6Q43.35 0.6 40.6-1.15 37.85-2.9 36.4-5.98 34.95-9.05 34.95-12.95L34.95-12.95Q34.95-16.9 36.4-20.03 37.85-23.15 40.6-24.93 43.35-26.7 47.05-26.7L47.05-26.7Q49.65-26.7 51.6-26.15 53.55-25.6 55.3-24.15L55.3-24.15 55.3-19.9 55.1-19.9Q53.3-21.4 51.37-22.05 49.45-22.7 47-22.7L47-22.7Q43.45-22.7 41.52-19.95 39.6-17.2 39.6-12.9L39.6-12.9Q39.6-8.75 41.52-6.08 43.45-3.4 46.95-3.4L46.95-3.4Q49.55-3.4 51.6-4.23 53.65-5.05 55.65-6.85L55.65-6.85 55.85-6.85 55.85-2.6Q54-0.85 51.87-0.13 49.75 0.6 47 0.6L47 0.6ZM77.95-26.7Q81.65-26.7 83.55-24.43 85.45-22.15 85.45-18.1L85.45-18.1 85.45 0 81.05 0 81.05-17.5Q81.05-20 80-21.38 78.95-22.75 76.8-22.75L76.8-22.75Q74.34-22.75 72.67-21.95 71-21.15 68.95-19.35L68.95-19.35 68.95 0 64.55 0 64.55-37.7 68.95-37.7 68.95-22.85Q71.15-24.85 73.12-25.78 75.09-26.7 77.95-26.7L77.95-26.7ZM106.99 0.6Q101.29 0.6 98.09-3.13 94.89-6.85 94.89-13.05L94.89-13.05Q94.89-19.25 98.09-22.98 101.29-26.7 106.99-26.7L106.99-26.7Q112.69-26.7 115.89-22.98 119.09-19.25 119.09-13.05L119.09-13.05Q119.09-6.85 115.89-3.13 112.69 0.6 106.99 0.6L106.99 0.6ZM106.99-3.2Q110.64-3.2 112.49-5.9 114.34-8.6 114.34-13.05L114.34-13.05Q114.34-17.5 112.49-20.2 110.64-22.9 106.99-22.9L106.99-22.9Q103.34-22.9 101.52-20.2 99.69-17.5 99.69-13.05L99.69-13.05Q99.69-8.6 101.52-5.9 103.34-3.2 106.99-3.2L106.99-3.2Z" opacity="1" transform="matrix(1,0,0,1,0,0)" fill="black" class="wordmark-text-0" id="SvgjsPath2170"></path></svg></g></svg></g></svg></g></svg></g><g transform="matrix(1,0,0,1,427.209654015206,0)"><svg viewBox="0 0 185.5127240762074 185.5127240762074" height="185.5127240762074" width="185.5127240762074"><g data-palette-color="url(#698c6747-486b-4719-b368-ca051b89e129)"><rect width="50.70681124749669" height="185.5127240762074" fill="black" stroke="transparent" x="0" fill-opacity="1"></rect><rect width="50.70681124749669" height="185.5127240762074" fill="black" stroke="transparent" x="61.83757469206913" fill-opacity="0.75"></rect><rect width="50.70681124749669" height="185.5127240762074" fill="black" stroke="transparent" x="123.67514938413827" fill-opacity="0.5"></rect></g></svg></g></svg></g><defs><mask></mask></defs></svg><rect width="395.52" height="119.75079620100755" fill="black" stroke="none" visibility="hidden"></rect></g></mask></svg><rect width="395.52" height="119.75079620100755" fill="black" stroke="none" visibility="hidden"></rect></g></mask><linearGradient x1="0" x2="1" y1="0.548" y2="0.55" id="698c6747-486b-4719-b368-ca051b89e129"><stop stop-color="#ff6cab" offset="0"></stop><stop stop-color="#7366ff" offset="1"></stop></linearGradient><rect width="395.52" height="119.75079620100755" fill="url(#698c6747-486b-4719-b368-ca051b89e129)" mask="url(#d44ff108-ce46-41f5-8d2c-3490ed9453dc)" data-fill-palette-color="accent"></rect></svg><rect width="395.52" height="119.75079620100755" fill="none" stroke="none" visibility="hidden"></rect></g></svg></g></svg>